# xmcd
#
# Track frame offsets:
#	150
#	15167
#	29610
#	48687
#	69245
#	89037
#	104315
#	122940
#	139550
#	160572
#	176410
#	194155
#	206810
#	224572
#
# Disc length: 3209 seconds
#
# Revision: 1
# Processed by: cddbd v1.5.1PL0 Copyright (c) Steve Scherf et al.
# Submitted via: CDex 1.50Beta5
#
DISCID=ce0c870e
DTITLE=ブリトニー・スピアーズ - POP!
DYEAR=2002
DGENRE=Pop
TTITLE0=ブリトニー・スピアーズ/オーヴァープロテクテッド
TTITLE1=ピンク/ゲット・ザ・パーティー・スターテッド
TTITLE2=インシンク/ガールフレンド
TTITLE3=バックストリート・ボーイズ/ドゥラウニング〜なんでこんなに好きなんだろう(Dan Huff remix x2)
TTITLE4=ウエストライフ/エンジェル
TTITLE5=クリスティーナ・アギレラ/カム・オン・オーヴァー・ベイビー
TTITLE6=LFO/エヴリ・アザー・タイム
TTITLE7=アーロン・カーター/アイム・オール・アバウト・ユー
TTITLE8=O-TOWN/オール・オア・ナッシング
TTITLE9=アリシア・キーズ/フォーリン
TTITLE10=ダイド/ハンター
TTITLE11=FIVE/ロック・ザ・パーティー
TTITLE12=ステップス/チェイン・リアクション
TTITLE13=カイリー・ミノーグ/オン・ア・ナイト・ライク・ディス
EXTD=
EXTT0=
EXTT1=
EXTT2=
EXTT3=
EXTT4=
EXTT5=
EXTT6=
EXTT7=
EXTT8=
EXTT9=
EXTT10=
EXTT11=
EXTT12=
EXTT13=
PLAYORDER=
